<?xml version="1.0" encoding="UTF-8"?>
<svg id="Layer_2" data-name="Layer 2" xmlns="http://www.w3.org/2000/svg" viewBox="0 0 800 600">
  <defs>
    <style>
      .cls-1 {
        fill: #e8e8e8;
      }

      .cls-2 {
        fill: #d55d20;
      }

      .cls-3 {
        fill: #e6a068;
      }

      .cls-4 {
        fill: #f0c794;
      }

      .cls-5 {
        fill: none;
        stroke: #d55d20;
        stroke-miterlimit: 10;
        stroke-width: 8px;
      }
    </style>
  </defs>
  <g id="Layer_1-2" data-name="Layer 1">
    <g>
      <text class="cls-1" transform="translate(190.53 146.41)" style="font-family:Arial-BoldMT, Arial; font-size:96px; font-weight:700;">analyze</text>
      <g>
        <rect class="cls-5" x="150" y="200" width="500" height="240" rx="25" ry="25"/>
        <g>
          <circle class="cls-2" cx="200" cy="250" r="12"/>
          <circle class="cls-3" cx="230" cy="250" r="12"/>
          <circle class="cls-4" cx="260" cy="250" r="12"/>
        </g>
        <circle class="cls-2" cx="200" cy="290" r="6"/>
        <g>
          <rect class="cls-4" x="220" y="320" width="8" height="80" rx="4" ry="4"/>
          <rect class="cls-4" x="250" y="320" width="8" height="80" rx="4" ry="4"/>
          <rect class="cls-4" x="310" y="320" width="8" height="80" rx="4" ry="4"/>
          <rect class="cls-4" x="340" y="320" width="8" height="80" rx="4" ry="4"/>
          <rect class="cls-4" x="370" y="320" width="8" height="80" rx="4" ry="4"/>
          <rect class="cls-4" x="400" y="320" width="8" height="80" rx="4" ry="4"/>
        </g>
        <g>
          <rect class="cls-3" x="214" y="345" width="20" height="8" rx="4" ry="4"/>
          <rect class="cls-3" x="244" y="355" width="20" height="8" rx="4" ry="4"/>
          <rect class="cls-4" x="290" y="335" width="12" height="8" rx="4" ry="4"/>
          <rect class="cls-4" x="304" y="340" width="20" height="8" rx="4" ry="4"/>
          <rect class="cls-4" x="334" y="350" width="20" height="8" rx="4" ry="4"/>
          <rect class="cls-3" x="364" y="365" width="12" height="8" rx="4" ry="4"/>
          <rect class="cls-4" x="394" y="340" width="20" height="8" rx="4" ry="4"/>
        </g>
      </g>
      <text class="cls-1" transform="translate(480 380)" style="font-family:Arial-BoldMT, Arial; font-size:96px; font-weight:700;">this</text>
    </g>
  </g>
</svg>